<svg id="Capa_1" data-name="Capa 1" xmlns="http://www.w3.org/2000/svg" viewBox="0 0 347.74 722.06"><defs><style>.cls-1{fill:#010101;}.cls-2{fill:#ecdedf;}.cls-3{fill:#952943;}.cls-4{fill:#373636;}.cls-5{fill:#a8a8a8;}.cls-6{fill:#fff;}.cls-7{fill:#cebcc1;}</style></defs><path class="cls-1" d="M287.87,568.68c-.11,13,.33,25.94.37,38.91q0,13.36.09,26.74c0,.93,0,1.86,0,2.79a1.07,1.07,0,0,1-.53,1,15.85,15.85,0,0,1-2.2,1.36,22.84,22.84,0,0,0-2.65,1.36c-3.8,2-7.58,4.11-11.37,6.15s-7.5,4-11.23,6c-3.44,1.86-6.87,3.75-10.31,5.61-3.26,1.77-6.55,3.49-9.82,5.26-3.67,2-7.33,4-11,6-1.81,1-3.65,1.91-5.46,2.88-3.73,2-7.46,4-11.19,6.07-1.05.57-2.11,1.11-3.17,1.67-3.91,2.09-7.84,4.16-11.74,6.27-4.55,2.45-9.08,4.95-13.63,7.41-1.28.7-2.58,1.36-3.88,2a1.85,1.85,0,0,1-2-.18c-1.33-.86-2.74-1.6-4.15-2.35-3.39-1.81-6.8-3.58-10.18-5.41-3.62-2-7.2-3.94-10.81-5.9-1.63-.88-3.3-1.7-4.94-2.57-3.39-1.8-6.79-3.59-10.18-5.41-3.68-2-7.34-4-11-6l-14-7.48-12.46-6.64q-8.34-4.46-16.66-8.92c-3.61-1.95-7.21-3.94-10.81-5.92l-.68-.41a1,1,0,0,1-.57-1c.07-4.19-.49-8.36-.47-12.55,0-3.66-.23-7.31-.35-11-.14-3.85-.3-7.7-.39-11.56-.06-2.46,0-4.92-.3-7.37,0-.27,0-.53,0-.8q-.24-8.78-.5-17.55c0-1.73-.13-3.45-.21-5.18,0-.33,0-.66,0-1q-.28-8.76-.57-17.54-.3-9.07-.63-18.14c0-.07,0-.13,0-.2q-.3-9.87-.61-19.74c-.12-3.86-.27-7.71-.39-11.57a2.26,2.26,0,0,0-.45-1.48,1.25,1.25,0,0,1,0-1.64,8.67,8.67,0,0,1,1.69-1.94c3.81-3.08,7.59-6.21,11.4-9.3,2.26-1.84,4.57-3.63,6.85-5.44.62-.5,1.2-1.06,1.85-1.52a2.21,2.21,0,0,0,1-1.67c0-1,.53-1.89.51-2.89a11.91,11.91,0,0,1,.5-2.5c.39-2.05.77-4.1,1.18-6.14.58-3,1.31-6,1.93-9,.49-2.37.74-4.79,1.38-7.11.68-2.47,1-5,1.6-7.49s1-4.72,1.38-7.12c.31-2.2.9-4.35,1.33-6.53.23-1.15.51-2.29.7-3.45.27-1.61.66-3.19.94-4.8s.72-3.44,1.07-5.17c.48-2.37.95-4.74,1.43-7.11s.89-4.91,1.51-7.32.87-5,1.61-7.48a22.8,22.8,0,0,0,.86-4.62c.08-.94.41-1.79.57-2.69.5-2.7,1.07-5.38,1.57-8.07.44-2.37,1.14-4.69,1.51-7.07.27-1.68.65-3.33.94-5,.42-2.37,1-4.71,1.5-7.07s.84-4.77,1.41-7.12,1-5,1.58-7.5c.39-1.51.6-3.08.93-4.62.37-1.73.63-3.48,1-5.21s.81-3.69,1.12-5.57c.25-1.54.66-3.05.94-4.59.34-1.86.71-3.72,1.09-5.57.35-1.66.76-3.31,1.11-5s.59-3.1.92-4.63c.56-2.62.93-5.28,1.64-7.87A23.61,23.61,0,0,0,126,300c.07-1,.43-1.79.58-2.7.38-2.38,1.1-4.7,1.5-7.08s.87-4.48,1.31-6.71c.49-2.49,1.06-5,1.5-7.47s.91-4.89,1.43-7.31.82-4.89,1.55-7.28c.41-1.35.54-2.82.85-4.23.6-2.68,1-5.41,1.69-8.08.44-1.65.52-3.38.92-5s.65-3.06.94-4.61c.34-1.85.72-3.71,1.09-5.56.32-1.6.65-3.2,1-4.79l.66-3.27c.32-1.6.67-3.2,1-4.8.36-1.86.85-3.69,1.11-5.58a33.23,33.23,0,0,1,1-4.61c.28-.95.36-1.93.57-2.89.26-1.21.56-2.41.85-3.61.19-.83.29-1.69.44-2.52.42-2.38.92-4.75,1.43-7.1a51.17,51.17,0,0,1,1.53-7c0-1.8.88-3.43.85-5.23.77-2.29,1-4.71,1.54-7,.37-1.57.58-3.22.94-4.81.54-2.42.85-4.88,1.52-7.28.44-1.57.63-3.21.95-4.82s.68-3.48,1-5.22c.5-2.5.92-5,1.55-7.5.42-1.64.71-3.31,1.07-5s.64-3.32,1-5c.22-1.09.37-2.18.67-3.26.25-.87.32-1.79.52-2.68.39-1.72.66-3.46,1-5.19s.72-3.71,1.1-5.56c.48-2.3,1-4.6,1.46-6.9.22-1.09.42-2.19.6-3.29.15-.9.48-1.75.61-2.66.41-2.65,1.16-5.22,1.59-7.87.38-2.39,1-4.72,1.52-7.09s.84-4.62,1.3-6.92,1.1-4.83,1.52-7.26a48,48,0,0,0,.93-5.2,20.66,20.66,0,0,1,.53-2.3c.24-1.28.55-2.55.69-3.85.07-.67.45-1.2.54-1.88a41.92,41.92,0,0,1,.81-4.45c.34-1.47.64-2.94.94-4.42.37-1.85.73-3.71,1.16-5.55s.64-3.46,1.11-5.17c.22-.81.31-1.67.48-2.5.53-2.62,1-5.26,1.59-7.86.39-1.58.59-3.21.9-4.82s.86-3.44,1.05-5.18c.26-2.36,1.31-4.53,1.46-6.91a5.19,5.19,0,0,1,.72-1.8.49.49,0,0,1,.91.08,13.59,13.59,0,0,1,.94,3.14,12.38,12.38,0,0,0,.56,2.49c.35,1.21.39,2.45.71,3.65s.57,2.68.79,4a31,31,0,0,0,.5,3.5c.37,1.26.25,2.59.72,3.84.29.79-.1,1.74.42,2.52a11.76,11.76,0,0,0,.59,3.68,57.85,57.85,0,0,0,1.11,6.4c.34,1.12.26,2.36.54,3.51a34.62,34.62,0,0,0,.72,3.87,9.81,9.81,0,0,1,.49,3.1c0,1.2.64,2.3.44,3.52.67,1,.27,2.19.74,3.24.34.76-.12,1.73.43,2.51-.15,1.28.42,2.45.51,3.7a25.81,25.81,0,0,0,.64,3.47c.22,1,0,2.12.55,3.07a34,34,0,0,0,.88,6c.34,2,.66,4,1,6a27.52,27.52,0,0,1,.62,3.88,26.32,26.32,0,0,0,.62,3.47c.22,1.29.39,2.59.61,3.89.17,1,.34,2.06.49,3.1.29,1.94.91,3.84,1.1,5.78a24.56,24.56,0,0,1,.49,3.5c-.05.94.68,1.75.47,2.71.59,1.16.42,2.46.64,3.68s.42,2.45.66,3.66.27,2.46.62,3.67c.28,1,.29,2.06.51,3.1.3,1.47.58,3,.73,4.44.14,1.31.55,2.56.57,3.89a26.26,26.26,0,0,0,.64,3.46c.21,1.22.4,2.45.54,3.68.11,1,.36,2.06.5,3.11.25,1.94.9,3.83,1.07,5.77.11,1.25.5,2.45.51,3.71a12.71,12.71,0,0,0,.49,2.5c.46,2.11.38,4.32,1.17,6.36a12.63,12.63,0,0,0,.51,3.51,21.5,21.5,0,0,0,.7,3.85,14,14,0,0,1,.47,2.71c.21,1.62.63,3.22.8,4.82.21,2.1.62,4.17,1,6.23a35.87,35.87,0,0,0,1.12,6.16c-.16,1.27.37,2.46.54,3.69a24.7,24.7,0,0,0,.56,3.48,22.62,22.62,0,0,1,.58,3.67c.13,1,.3,2.09.52,3.1.43,2,.73,4,1,6,.39,2.46.85,4.91,1.29,7.36.22,1.23.25,2.49.48,3.72.18,1,.45,2,.58,3.08.18,1.5.47,3,.75,4.47a27.46,27.46,0,0,0,.63,3.47c.31.94.1,2,.55,2.9-.22,1.28.66,2.42.46,3.69.61,1.95.56,4,1.13,6,.27.92.26,1.94.45,2.91.3,1.54.54,3.09.77,4.63.17,1.23.48,2.45.53,3.71a27.51,27.51,0,0,0,.64,3.45A29.55,29.55,0,0,1,228,268c.08,1.19.51,2.3.55,3.51,0,.53.25,1.12.33,1.71.29,1.88.48,3.79.89,5.62s.72,3.88,1,5.81a40.6,40.6,0,0,1,1,6.4c.62,1.13.28,2.45.76,3.66a11.27,11.27,0,0,1,.45,2.89c.22,2.09.65,4.15,1,6.21a25.91,25.91,0,0,0,1.1,5.77,15.55,15.55,0,0,0,.49,3.71,16,16,0,0,0,.62,3.46,15.68,15.68,0,0,1,.48,2.9c.35,2.46.72,4.91,1.27,7.34-.21,1.28.52,2.44.43,3.71-.06.8.68,1.46.43,2.31.63,2.07.56,4.27,1.16,6.36a27.36,27.36,0,0,1,.5,2.92,30.76,30.76,0,0,0,.8,4.65c.27.8-.06,1.73.44,2.51-.13,1.22.41,2.34.47,3.53.05,1,.62,1.88.47,2.89.61,1.88.56,3.88,1.11,5.79a21.89,21.89,0,0,1,.47,3.09c.21,1.49.58,3,.75,4.44a23,23,0,0,1,.52,3.7c-.05.93.63,1.76.4,2.72a36.87,36.87,0,0,1,1.12,6.16c.34,2.06.7,4.13,1,6.21a41.92,41.92,0,0,0,1.12,6.16c-.14,1.21.41,2.32.49,3.51s.36,2.19.54,3.29c.24,1.43.37,2.88.73,4.27.32,1.21.33,2.45.7,3.65a28,28,0,0,1,.46,2.93c.15.83.42,1.65.51,2.49a5.23,5.23,0,0,0,.4,2.31,10.12,10.12,0,0,0,.49,3.51,23.88,23.88,0,0,0,.66,3.65c.33.92-.14,2,.51,2.88-.22,1.28.66,2.43.45,3.71.63,1.13.3,2.45.71,3.65a12.69,12.69,0,0,1,.44,2.7c.18,2,.59,4,.94,6a43,43,0,0,0,1.1,6c-.19,1.28.49,2.43.52,3.69a19.5,19.5,0,0,0,.48,3.11c.4,2.33.79,4.66,1.21,7a20.5,20.5,0,0,0,.71,3.67,13.29,13.29,0,0,1,.46,2.91c.31,2.41.93,4.76,1.23,7.16a34.12,34.12,0,0,1,.52,3.51,3.46,3.46,0,0,0,1.55,2.8c3.95,2.9,7.83,5.91,11.73,8.89,2.58,2,5.14,4,7.72,5.94a11.39,11.39,0,0,0,1.86,1.13,1.72,1.72,0,0,1,.93,1.2,9.34,9.34,0,0,1,.19,2.58c0,6.05,0,12.1.09,18.16q.18,21.74.38,43.49C287.88,565.49,287.87,567.08,287.87,568.68Z"/><path class="cls-2" d="M69.37,719.41c0,1.17.71,2.22.54,3.42,0,.09-.15.24-.23.24a.46.46,0,0,1-.31-.2,1.22,1.22,0,0,1-.17-.55A8.41,8.41,0,0,1,69.37,719.41Z"/><path class="cls-3" d="M182.16,38.51a20.67,20.67,0,0,1,.2,6.6,26.36,26.36,0,0,0-.23,4q0,16.76,0,33.52a34.94,34.94,0,0,1-.34,6,16,16,0,0,0-.05,2.59q0,16.77,0,33.53a34.36,34.36,0,0,1-.32,5.36,18.61,18.61,0,0,0-.08,3q0,16.56,0,33.12a24,24,0,0,1-.31,4.56,12.65,12.65,0,0,0-.1,2.39q0,17.66,0,35.32a15.28,15.28,0,0,1-.26,3.36,14.78,14.78,0,0,0-.12,3q0,17.67,0,35.32a17.13,17.13,0,0,1-.26,3.57,14.75,14.75,0,0,0-.13,3q0,17.76,0,35.52a8.25,8.25,0,0,1-.28,3,3.6,3.6,0,0,0-.09,1.19c0,1.26-.05,2.53-.05,3.79v34.32a12,12,0,0,1-.2,2.38,12.21,12.21,0,0,0-.18,2.57c0,3.4,0,6.79,0,10.18v26.14a8.71,8.71,0,0,1-.27,3,3.89,3.89,0,0,0-.08,1.19c0,1.06,0,2.13-.05,3.19v34.73a7.41,7.41,0,0,1-.24,2.56,4.87,4.87,0,0,0-.12,1.38q0,2-.06,4V459a15.92,15.92,0,0,1-.26,3.36,16.83,16.83,0,0,0-.13,3.18q0,17.37,0,34.73a12.55,12.55,0,0,1-.28,3.76,4.93,4.93,0,0,0-.06,1.39L177.67,533a5.79,5.79,0,0,1-.14,2.16c-.51.31-1,0-1.32-.22a85,85,0,0,0-8.83-3.52c-1.11-.42-2.16-1-3.26-1.42-3-1.18-6.06-2.29-9.08-3.47-1.65-.64-3.23-1.46-4.92-2-2.68-.94-5.31-2-8-3a8,8,0,0,1-1.48-.57,30,30,0,0,0-4.94-2.07c-3.37-1.34-6.8-2.55-10.15-4-3-1.27-6.1-2.18-9-3.5-3.57-1.59-7.23-2.89-10.86-4.29-3-1.15-5.83-2.47-8.82-3.53-2.55-.89-5-2-7.52-3.05-.52-.21-.61-.56-.65-1.08a9.63,9.63,0,0,1,.46-2.33c.41-2.47.82-4.94,1.46-7.36.19-.7.2-1.44.37-2.15C92.12,483,93,478.4,93.88,473.8c.42-2.33,1.12-4.62,1.46-6.95.36-2.49,1.1-4.88,1.41-7.38.28-2.21.92-4.38,1.3-6.58.45-2.6,1.16-5.14,1.53-7.76.32-2.28.89-4.53,1.4-6.78.32-1.47.75-2.92,1.09-4.39s.61-2.84.85-4.27c.64-3.7,1.44-7.37,2.16-11.06q.7-3.57,1.43-7.16c.64-3.16,1.32-6.31,1.85-9.5.37-2.2.89-4.39,1.31-6.59.48-2.45.87-4.94,1.51-7.35.43-1.6.78-3.2,1.1-4.81.51-2.58,1-5.17,1.53-7.75.48-2.32,1-4.63,1.47-7,.33-1.62.63-3.24,1-4.85.49-2.45,1-4.9,1.49-7.35.34-1.68.62-3.37,1-5.05s.8-3.47,1-5.23c.34-2.49,1.25-4.86,1.4-7.38a20.83,20.83,0,0,1,.7-2.25c.69-3.77,1.69-7.48,2.28-11.25.49-3.13,1.39-6.17,1.76-9.32.19-1.56.68-3.08,1-4.63.49-2.46.93-4.92,1.41-7.37.43-2.2.91-4.39,1.31-6.59.49-2.59,1.27-5.12,1.54-7.76a21.82,21.82,0,0,0,1.17-4.78c.5-2.53,1-5,1.5-7.57.48-2.32,1-4.62,1.5-6.95s.88-4.92,1.35-7.38c.42-2.2.89-4.39,1.32-6.58.51-2.59.93-5.19,1.54-7.75.25-1,.33-2.08.65-3.1a39.73,39.73,0,0,0,.9-4.26c.5-2.45,1.1-4.88,1.53-7.35.33-1.88.79-3.74,1.16-5.61.83-4.2,1.54-8.42,2.5-12.59.69-3,1.23-6.06,1.83-9.09s1.32-6.18,1.83-9.3a51.6,51.6,0,0,1,1.27-6.2c.51-1.72.71-3.48,1.17-5.2s.65-3.36,1-5c.63-3,1.38-6,1.89-9.09s1.34-6.31,1.8-9.51c.33-2.27.95-4.5,1.41-6.76s.92-4.78,1.39-7.17a62.62,62.62,0,0,1,1.33-6.4c.42-1.39.64-2.81.94-4.22s.54-2.72.82-4.07c.45-2.2.91-4.39,1.34-6.59.5-2.58,1.16-5.14,1.51-7.75.2-1.43.59-2.84.88-4.26.52-2.51,1-5,1.52-7.55s1-4.77,1.46-7.16c.44-2.19,1-4.38,1.31-6.59.18-1.32.75-2.51.9-3.83.29-2.63,1.18-5.14,1.49-7.77.17-1.44.63-2.84.91-4.26.52-2.58,1-5.17,1.5-7.75.45-2.26.94-4.51,1.4-6.77s.93-4.78,1.42-7.17,1.1-5,1.55-7.54c.23-1.3.56-2.59.75-3.89s.76-2.67,1-4C181.89,39.9,182,39.21,182.16,38.51Z"/><path class="cls-4" d="M180.5,693c0-1.34,0-2.33,0-3.32a11.09,11.09,0,0,0-.28-3,7.2,7.2,0,0,1-.1-2q0-17.35,0-34.71a12.25,12.25,0,0,0-.31-3.76,6.85,6.85,0,0,1-.09-2q0-18.25,0-36.52a11.16,11.16,0,0,0-.29-3.35,8.37,8.37,0,0,1-.1-2.19q0-18.25,0-36.51a9.13,9.13,0,0,0-.29-3.16,3.94,3.94,0,0,1-.09-1.38q0-6,0-12c0-.27,0-.54,0-.8a1.14,1.14,0,0,1,.84-1.21c.92-.37,1.86-.7,2.78-1.07,1.6-.63,3.19-1.32,4.81-1.9.64-.23,1.06-.73,1.7-1,2.84-1.1,5.64-2.31,8.46-3.48a4.39,4.39,0,0,0,1.08-.48,10.35,10.35,0,0,1,2.67-1.31c2.21-.87,4.41-1.8,6.61-2.72.92-.38,1.73-.94,2.65-1.33,2.44-1,4.85-2.16,7.34-3.06a3.36,3.36,0,0,0,.54-.26c4.31-2.23,8.88-3.85,13.3-5.81,1.33-.59,2.58-1.32,3.95-1.84,2.11-.79,4.11-1.86,6.23-2.62,1.14-.4,2.11-1.08,3.22-1.51,2.9-1.14,5.73-2.45,8.61-3.64,1.34-.56,2.58-1.32,3.95-1.82,2.3-.84,4.57-1.76,6.79-2.79.95-.43,1.82-1,2.8-1.42,2.44-1,4.87-2.1,7.38-2.94a3.2,3.2,0,0,0,.73-.33c2.62-1.76,5.66-2.57,8.51-3.82a2.4,2.4,0,0,1,.38-.12.63.63,0,0,1,.73.49q.06.9.06,1.8,0,13.17,0,26.33a10,10,0,0,0,.27,2.77,8.29,8.29,0,0,1,.12,2.18q0,22.63,0,45.29a9.55,9.55,0,0,0,.26,2.76,8.31,8.31,0,0,1,.12,2.18q0,20.85,0,41.7c0,1.33,0,2.66,0,4a4.42,4.42,0,0,0,.21,1.77,6.25,6.25,0,0,1,.18,2,1.59,1.59,0,0,1-1,1.73c-1,.45-1.85,1-2.82,1.45-2.65,1.21-5.16,2.71-7.7,4.13-2,1.1-4,2.09-6,3.14-.29.15-.56.34-.84.52a30.18,30.18,0,0,1-4.58,2.39,31,31,0,0,0-4.53,2.45c-1.69,1.05-3.41,2-5.19,2.94-3.48,1.79-7.06,3.44-10.4,5.47-2.9,1.77-5.95,3.2-8.93,4.8s-5.73,3-8.53,4.68c-2.58,1.51-5.27,2.8-7.94,4.15-1.84.93-3.6,2-5.37,3-1.53.92-3.2,1.62-4.78,2.46-3.69,2-7.42,3.86-11,6-2.06,1.19-4.23,2.18-6.31,3.32-1.16.63-2.31,1.27-3.43,2C184.93,691,182.84,691.86,180.5,693Z"/><path class="cls-5" d="M177.66,622.27c0,6.23,0,14.08,0,21.93,0,3.79,0,7.58.13,11.37.5,12,.13,23.93.27,35.9a7.13,7.13,0,0,1,0,.8.37.37,0,0,1-.57.31c-1.83-.93-3.69-1.8-5.45-2.85-2.28-1.36-4.66-2.52-7-3.79-3.72-2-7.45-4-11.18-6l-4-2.16L135.29,670l-17-9.07c-5.78-3.09-11.56-6.16-17.33-9.27-4.43-2.38-8.82-4.84-13.25-7.22-3.9-2.1-7.84-4.14-11.76-6.21l-.71-.34a2.24,2.24,0,0,1-1.34-2.38c.07-3.78.18-7.59-.12-11.36-.33-4-.09-8.12-.4-12.15s-.29-8.1-.34-12.15a5.29,5.29,0,0,0,0-.8,56.47,56.47,0,0,1-.42-9.55,20,20,0,0,0,0-2.19,86.34,86.34,0,0,1-.35-10.17,20,20,0,0,0-.07-2.19,88.34,88.34,0,0,1-.33-9.76,29.72,29.72,0,0,0-.19-3.78,45.24,45.24,0,0,1-.32-6.37A75.46,75.46,0,0,0,71,546.7c-.17-1.78-.07-3.59-.07-5.38,0-2.13-.11-4.25-.29-6.37-.17-1.92-.1-3.86-.11-5.78a35.38,35.38,0,0,0-.36-6.17,14.86,14.86,0,0,1-.09-2.59c0-1.86,0-3.72,0-5.58,0-1.2-.12-2.39-.25-3.58a60.16,60.16,0,0,1-.11-6.58.5.5,0,0,1,.68-.49c.69.24,1.37.49,2,.77,3.66,1.51,7.31,3.05,11,4.56s7.5,2.94,11.17,4.59c3.43,1.55,7,2.82,10.42,4.33,3.75,1.65,7.61,3,11.35,4.7,4.46,2,9.09,3.6,13.52,5.68,2.33,1.09,4.78,1.94,7.16,2.92q7.15,2.92,14.29,5.89c2.57,1.06,5.12,2.15,7.69,3.21,5.55,2.29,11.11,4.59,16.68,6.84a1.56,1.56,0,0,1,1.18,1.78c0,.46,0,.93,0,1.4,0,7.25-.08,14.5.16,21.74.4,12.1.09,24.21.27,36.31C177.32,612.82,177.49,616.74,177.66,622.27Z"/><path class="cls-6" d="M178.91,538.65a3.14,3.14,0,0,1,1-.64c3.46-1.38,6.9-2.79,10.35-4.19,3.82-1.55,7.67-3,11.45-4.68,2.7-1.18,5.43-2.25,8.14-3.39,3.44-1.45,6.91-2.82,10.35-4.28a52.86,52.86,0,0,0,6-2.55,30.91,30.91,0,0,1,3.09-1.2c2.83-1.23,5.75-2.22,8.54-3.56,2.53-1.22,5.24-2.06,7.84-3.14s5.27-2.38,8-3.38,5.32-2.21,8-3.2a39.44,39.44,0,0,1,4.36-1.78,1,1,0,0,0,.75-1c-.11-.85.19-1.73-.28-2.55a1.32,1.32,0,0,1-.14-.76c.24-1.54-.42-3-.49-4.5a9.25,9.25,0,0,0-.45-2.69c-.4-1.08-.06-2.24-.66-3.28-.25-.43,0-1.13,0-1.66a.71.71,0,0,1,.82.19q8.55,6.51,17.08,13c.09.07.09.24.15.45l-10.16,4.46c-2.61,1.15-5.21,2.32-7.82,3.46-1,.43-2,.78-2.94,1.21l-14.92,6.5c-3.76,1.64-7.56,3.18-11.28,4.89-3.91,1.8-7.93,3.36-11.84,5.15-3.07,1.39-6.19,2.67-9.28,4-4.25,1.85-8.46,3.79-12.7,5.65-2.36,1.05-4.76,2-7.13,3-4.61,2-9.23,4-13.82,6.09a16.14,16.14,0,0,1-3.83,1,2.19,2.19,0,0,1-1.33-.3c-2.57-1.06-5.15-2.11-7.72-3.18l-10.45-4.37c-4.15-1.73-8.3-3.48-12.46-5.19-4.66-1.91-9.33-3.78-14-5.7s-9.39-4-14.08-5.91c-2.26-.95-4.54-1.86-6.81-2.79q-3.85-1.57-7.7-3.18l-8.61-3.59c-4.77-2-9.53-4-14.3-6-2.76-1.14-5.53-2.23-8.29-3.35a2.75,2.75,0,0,1-1.21-.62c-.12-.43.25-.58.49-.77l12-9.55c1.35-1.08,2.67-2.19,4-3.26a3.81,3.81,0,0,1,1.67-1c-.3,2.19-1.08,4.24-1.18,6.4-.6.78-.16,1.84-.7,2.64a24.77,24.77,0,0,1-.95,4.82,4.64,4.64,0,0,0,0,1,1,1,0,0,0,.73,1c1.21.5,2.39,1.07,3.6,1.55,3.34,1.34,6.69,2.65,10,4,3,1.19,6.12,2.35,9.16,3.54,2.44,1,4.85,2,7.29,2.91,3.46,1.35,7,2.59,10.4,4,1.93.81,3.85,1.64,5.8,2.39,1.59.61,3.19,1.2,4.78,1.82s3.38,1.37,5.08,2c2.68,1.06,5.37,2.09,8,3.15,2.07.83,4.12,1.69,6.18,2.52,1.08.43,2.18.84,3.27,1.26l13.88,5.47c1,.38,1.93.82,2.89,1.24A1.69,1.69,0,0,0,178.91,538.65Z"/><path class="cls-7" d="M178.91,538.65c-1,1.11-1.73,1-2.44-.31A4.09,4.09,0,0,0,178.91,538.65Z"/></svg>